<?xml version="1.0" encoding="utf-8" ?>
<svg xmlns="http://www.w3.org/2000/svg" xmlns:xlink="http://www.w3.org/1999/xlink" width="1024" height="1024">
	<path fill="#000A21" d="M128.858 283.051C151.223 270.949 173.13 258.208 195.266 245.71C245.219 217.756 294.928 189.37 344.39 160.555L511.451 66.0517C527.072 73.2426 542.688 83.2387 557.705 91.781L641.535 139.379L962.029 321.678C950.573 327.817 939.164 334.044 927.803 340.358C922.013 343.541 914.82 348.694 908.499 350.266C900.897 352.156 891.426 351.107 883.576 351.083L846.631 350.984L697.457 351.146C725.792 378.354 746.779 404.706 760.798 441.859C781.003 495.405 777.063 555.514 753.586 607.377C725.624 669.15 670.92 719.68 607.527 743.532C550.015 765.516 486.684 767.009 428.201 747.757C421.22 745.402 414.143 743.033 407.427 739.99C440.297 779.669 475.522 817.444 507.945 857.497C517.865 850.425 530.068 844.478 540.707 838.438L610.971 798.99L805.545 688.251C805.984 584.373 804.64 480.426 806.047 376.562C814.328 376.303 822.609 376.65 830.897 376.289C834.993 375.7 839.665 376.006 843.81 376.002L871.021 376.162C879.315 376.688 887.648 376.142 895.952 376.269L896.027 739.166C861.971 759.276 827.399 778.392 793.031 797.948L681.701 861.761C636.043 887.699 590.95 914.962 544.559 939.572C538.685 933.343 533.39 926.613 527.673 920.248C518.944 909.912 510.06 899.706 501.026 889.635C491.889 879.609 483.186 869.179 474.252 858.972L395.182 768.218C375.313 746.122 355.659 723.834 336.221 701.358C319.684 682.128 303.472 662.997 289.869 641.515C276.034 619.667 264.357 593.563 259.507 568.084L219.125 568.09C219.845 582.543 219.392 597.205 219.339 611.689C219.152 637.337 219.165 662.986 219.379 688.633C241.981 701.797 264.664 714.824 287.425 727.712L319.475 746.5L349.559 763.809C354.655 766.761 360.52 769.57 365.133 773.23C371.328 778.146 376.484 786.055 381.555 792.176L406.063 821.187L471.769 897.659C487.721 916.127 503.599 934.874 520.246 952.715L511.428 957.735C505.211 955.093 499.132 951.111 493.224 947.8C479.942 940.399 466.746 932.843 453.639 925.136L354.075 868.097L204.042 782.731C178.729 768.393 153.124 754.586 128.264 739.459C127.5 732.294 127.98 724.702 127.995 717.493L128.038 678.895L128.337 542.418C127.505 535.293 128.207 527.242 128.202 520.032C128.193 507.426 127.76 494.626 128.341 482.036C128.972 435.992 128.442 389.844 128.474 343.789L128.478 305.977C128.477 298.389 128.094 290.6 128.858 283.051ZM219.003 335.547C219.029 375.342 218.441 415.244 219.19 455.026C232.292 454.412 245.55 454.806 258.67 454.873C276.54 386.364 318.562 328.416 379.724 292.518C385.764 288.986 391.91 285.638 398.154 282.479C467.065 248.477 552.755 244.32 625.259 268.964C663.189 281.856 697.087 301.74 728.675 326.271C748.854 327.014 769.106 325.791 789.275 326.39C781.001 320.946 772.231 316.151 763.682 311.152C747.542 301.583 731.254 292.267 714.822 283.209L606.598 222.891L540.696 185.708C534.187 182.002 517.172 171.019 511.435 169.408L344.407 264.077L252.607 316.256C241.415 322.519 230.456 329.833 219.003 335.547ZM511.642 372.893C492.948 383.792 474.198 394.593 455.392 405.297C444.067 411.811 431.954 417.8 421.7 425.933C411.274 434.232 402.343 444.253 395.293 455.562L548.621 455.514C560.177 455.518 571.752 455.373 583.305 455.638C591.764 455.833 600.607 456.727 609.025 455.955C598.994 475.03 585.49 494.458 574.16 513.074L552.919 548.155C548.8 555.001 544.915 562.246 540.296 568.761L391.108 568.599C392.395 570.672 393.63 572.783 395.144 574.702C415.126 599.975 439.134 610.059 466.362 624.905C482.398 633.648 498.774 643.358 513.576 654.03C532.887 639.091 555.574 627.399 576.56 614.94C589.978 606.973 603.276 598.962 614.589 588.073C624.247 578.642 632.183 567.597 638.04 555.436C643.638 543.906 647.549 531.936 649.127 519.192C652.371 492.994 647.83 472.599 631.475 451.675C608.409 422.164 572.691 407.969 540.951 389.959C534.492 386.323 528.081 382.601 521.72 378.796C518.567 376.911 515.012 374.204 511.642 372.893Z"/>
	<path fill="#5C2388" d="M511.824 94.2205L813.629 266.291C832.13 277.03 850.614 287.951 869.335 298.296C883.877 306.331 903.943 315.875 916.486 326.002C907.392 326.048 842.797 327.304 837.243 325.598C833.922 324.579 830.808 321.66 827.739 319.995C806.287 308.355 785.468 295.522 764.22 283.516L603.477 193.315L543.442 159.319C533.139 153.484 522.905 147.35 512.427 141.845C493.613 151.085 475.51 162.179 457.333 172.619L374.097 219.889L251.151 289.63L214.969 310.22C208.219 314.007 201.149 317.491 194.626 321.647C193.778 375.037 195.096 428.46 194.006 481.838C234.952 482.603 276.029 482.066 316.986 481.965L471.386 481.987L524.894 481.967C533.75 481.955 552.818 480.785 560.057 482.836L560.445 483.345L559.469 483.896L559.607 483.756L560.417 483.929C549.689 503.912 536.77 522.655 525.408 542.281C485.087 543.126 444.624 542.42 404.283 542.423L128.337 542.418C127.505 535.293 128.207 527.242 128.202 520.032C128.193 507.426 127.76 494.626 128.341 482.036C136.558 481.882 144.777 481.864 152.995 481.983L152.956 351.283C152.969 333.531 152.39 315.641 152.729 297.908C162.517 293.576 171.963 287.064 181.302 281.776L240.579 248.333L437.4 136.186C452.843 127.469 468.373 118.876 483.713 109.978C492.536 104.86 502.361 97.8768 511.824 94.2205Z"/>
	<path fill="#5C2388" d="M830.897 376.289C834.993 375.7 839.665 376.006 843.81 376.002L871.021 376.162C879.315 376.688 887.648 376.142 895.952 376.269L896.027 739.166C861.971 759.276 827.399 778.392 793.031 797.948L681.701 861.761C636.043 887.699 590.95 914.962 544.559 939.572C538.685 933.343 533.39 926.613 527.673 920.248C555.531 905.594 582.743 889.44 610.116 873.895L767.522 784.425C801.892 764.639 836.062 744.293 870.928 725.397L871.021 376.162Z"/>
	<path fill="#000A21" d="M871.021 376.162C879.315 376.688 887.648 376.142 895.952 376.269L896.027 739.166C861.971 759.276 827.399 778.392 793.031 797.948L681.701 861.761C636.043 887.699 590.95 914.962 544.559 939.572C538.685 933.343 533.39 926.613 527.673 920.248C555.531 905.594 582.743 889.44 610.116 873.895L767.522 784.425C801.892 764.639 836.062 744.293 870.928 725.397L871.021 376.162Z"/>
	<path fill="#5C2388" d="M615.262 329.208C618.941 328.522 621.649 329.646 624.864 331.254C676.866 357.484 716.468 403.111 735.122 458.286C751.587 509.826 747.044 565.781 722.481 613.99C704.082 650.415 675.355 683.821 639.741 704.246C633.926 707.581 628.021 711.225 621.636 713.33C626.961 707.333 634.248 702.14 640.326 696.862C653.51 684.21 664.779 669.703 673.777 653.799C697.859 610.827 705.324 556.109 692.007 508.494C673.745 443.201 628.898 402.908 571.428 370.799C558.751 363.716 545.076 358.414 532.519 351.286L531.967 350.967C557.053 337.757 587.253 331.713 615.262 329.208Z"/>
	<path fill="#5C2388" d="M675.754 536.309C676.126 536.555 676.485 536.993 676.803 537.31C679.525 550.872 679.828 565.881 678.347 579.616C674.113 622.303 652.988 661.527 619.675 688.553C577.914 722.335 524.283 737.826 470.941 731.514C419.48 725.292 371.689 701.676 335.484 664.579C330.516 659.56 325.254 654.526 320.868 648.995C312.78 639.711 304.053 628.464 298.595 617.378C298.88 617.556 299.164 617.737 299.452 617.911C305.257 621.437 309.894 627.368 315.186 631.697C331.052 644.674 348.422 655.95 367.35 663.917C425.9 688.561 486.504 692.749 546.111 668.403C591.826 649.731 639.002 614.688 662.505 570.49C665.852 564.195 669.345 557.234 671.505 550.445C672.941 545.935 673.69 541.087 675.561 536.74C675.623 536.595 675.689 536.452 675.754 536.309Z"/>
	<path fill="#5C2388" d="M153.247 568.084C166.823 567.651 180.456 567.912 194.04 567.962C194.747 613.631 194.385 659.393 194.49 705.072C229.367 723.138 263.097 743.595 297.114 763.214L329.186 781.608C334.351 784.611 340.246 787.486 344.845 791.273C348.594 794.361 351.81 799.395 354.97 803.172C363.352 813.06 371.659 823.011 379.891 833.025C386.646 840.999 393.448 848.935 400.296 856.829C404.421 861.631 408.889 866.427 412.362 871.725C408.352 871.018 386.066 856.494 380.675 853.467L152.931 724.925L153.151 634.331C153.128 612.333 152.362 590.06 153.247 568.084Z"/>
	<path fill="#5C2388" d="M551.062 279.738C593.512 279.583 632.552 289.362 670.171 309.29C677.009 312.912 685.083 316.575 690.892 321.669C687.43 322.804 676.152 319.214 672.117 318.44C657.985 315.729 643.155 315.911 628.83 315.979C615.8 316.041 602.964 316.433 590.016 318.024C535.065 324.78 482.715 347.347 437.195 378.262C433.235 381.524 428.995 384.469 425.018 387.73C413.018 397.57 401.878 408.67 392.712 421.228C387.507 428.36 383.149 435.924 379.127 443.767C377.444 447.046 375.191 454.262 372.434 456.206C371.245 456.204 370.625 456.337 369.776 455.325C368.527 453.837 368.455 451.001 368.421 449.169C367.841 418.251 379.531 383.851 396.428 358.129C401.714 350.082 408.551 342.302 415.237 335.398C450.77 298.709 500.535 280.717 551.062 279.738Z"/>
	<path fill="#5C2388" d="M288.423 567.2C297.896 566.645 307.701 567.408 317.215 567.433C331.088 567.47 345.43 566.721 359.222 568.015C362.678 573.665 365.357 579.702 369.082 585.228C387.642 612.763 413.675 631.508 442.989 646.328C454.294 652.044 467.969 657.404 478.228 664.658L478.008 665.191L475.973 665.922C451.526 667.5 426.982 665.359 403.178 659.57C356.54 647.776 314.395 618 289.876 576.302C288.583 574.105 286.156 570.378 286.832 567.815L288.423 567.2Z"/>
	<path fill="#5C2388" d="M449.912 282.62L450.198 283.024C449.475 285.22 429.611 297.644 426.312 300.13C420.38 304.601 414.953 309.605 409.683 314.824C376.759 347.43 358.134 388.304 354.401 434.474C353.846 441.335 354.016 448.339 353.985 455.223C344.666 455.459 335.306 455.159 325.981 455.172C314.024 455.189 302.072 455.448 290.115 455.313C289.744 455.133 289.449 454.772 289.15 454.488C289.199 450.937 290.569 447.406 291.55 444.019C298.642 419.514 310.834 395.552 325.412 374.633C351.03 338.234 386.064 309.486 426.764 291.467C434.049 288.205 442.024 284.031 449.912 282.62Z"/>
</svg>
